<svg class="button-arrow" viewBox="0 0 11 13" fill="currentColor" xmlns="http://www.w3.org/2000/svg"><g clip-path="url(#clip0)"><path d="M0.618321 5.48098L0.60115 5.48542H7.96185L5.64792 2.74474C5.53461 2.61094 5.47245 2.42968 5.47245 2.23943C5.47245 2.04919 5.53461 1.8692 5.64792 1.73507L6.00796 1.30935C6.12118 1.17555 6.27205 1.10156 6.43294 1.10156C6.59392 1.10156 6.74488 1.17502 6.85809 1.30882L10.8246 5.99612C10.9383 6.13045 11.0004 6.30938 11 6.49973C11.0004 6.69114 10.9383 6.87018 10.8246 7.0043L6.85809 11.692C6.74488 11.8257 6.59401 11.8993 6.43294 11.8993C6.27205 11.8993 6.12118 11.8256 6.00796 11.692L5.64792 11.2663C5.53461 11.1327 5.47245 10.9543 5.47245 10.7641C5.47245 10.5739 5.53461 10.4049 5.64792 10.2712L7.98796 7.51521H0.610093C0.278573 7.51521 -4.15228e-06 7.17753 -4.15228e-06 6.78594V6.18382C-4.15228e-06 5.79224 0.286801 5.48098 0.618321 5.48098Z" fill="currentColor"/></g><defs><clipPath id="clip0"><rect width="11" height="13" transform="matrix(-1 0 0 1 11 0)" fill="currentColor"/></clipPath></defs></svg>