<svg viewBox="0 0 24 24" fill="none" xmlns="http://www.w3.org/2000/svg"><g clip-path=""><path d="M20.1923 6.21616C19.8671 5.60786 19.2328 5.22869 18.543 5.23023H15.9243V8.73304C15.9243 9.12318 16.2669 9.43877 16.6571 9.43877H21.9173L20.1923 6.21616Z" fill="#81868C"/><path d="M5.05261 20.249C6.28952 20.249 7.29223 19.2463 7.29223 18.0094C7.29223 16.7725 6.28952 15.7698 5.05261 15.7698C3.8157 15.7698 2.81299 16.7725 2.81299 18.0094C2.81299 19.2463 3.8157 20.249 5.05261 20.249Z" fill="#81868C"/><path d="M17.7144 15.7698C16.4774 15.7698 15.4746 16.7725 15.4746 18.0096C15.4746 19.2466 16.4774 20.2494 17.7144 20.2494C18.9514 20.2494 19.9542 19.2466 19.9542 18.0096C19.9542 18.0095 19.9542 18.0095 19.9542 18.0094C19.9527 16.7731 18.9507 15.7712 17.7144 15.7698Z" fill="#81868C"/><path d="M23.5962 11.8244L22.4383 10.3488H16.657C15.7649 10.3488 15.0142 9.62508 15.0142 8.73315V4.4251C15.0225 4.06129 14.7343 3.75969 14.3705 3.75139C14.3576 3.75111 14.3447 3.75116 14.3318 3.75168H0.725232C0.335033 3.75168 0 4.0349 0 4.4251V16.8767C0 17.2669 0.335033 17.5716 0.725232 17.5716H1.9328C2.16728 15.8484 3.75429 14.6415 5.47752 14.8759C6.8797 15.0667 7.98239 16.1694 8.17319 17.5716H14.595C14.8296 15.8483 16.4167 14.6415 18.14 14.8761C19.5421 15.0669 20.6447 16.1695 20.8355 17.5716H23.2748C23.665 17.5716 24.0001 17.2669 24.0001 16.8767V12.975C23.9962 12.5573 23.8542 12.1528 23.5962 11.8244Z" fill="#81868C"/></g><defs><clipPath id="clip0"><rect width="24" height="24" fill="white"/></clipPath></defs></svg>