<svg viewBox="0 0 20 20" fill="currentColor" xmlns="http://www.w3.org/2000/svg"><path d="M14.997 18C14.098 18 13.709 17.689 13.121 17.219C12.441 16.676 11.596 16 9.994 16C8.393 16 7.548 16.676 6.869 17.22C6.282 17.689 5.894 18 4.995 18C4.098 18 3.71 17.689 3.123 17.22C2.444 16.676 1.601 16 0 16V18C0.898 18 1.286 18.311 1.873 18.78C2.552 19.324 3.396 20 4.995 20C6.596 20 7.44 19.324 8.119 18.781C8.707 18.311 9.095 18 9.994 18C10.894 18 11.305 18.328 11.872 18.781C12.551 19.324 13.396 20 14.997 20C16.598 20 17.443 19.324 18.122 18.781C18.689 18.328 19.1 18 20 18V16C18.398 16 17.553 16.676 16.873 17.219C16.285 17.689 15.896 18 14.997 18ZM4 6.5L2 7L4 15H4.995C6.596 15 7.44 14.324 8.119 13.781C8.707 13.311 9.095 13 9.994 13C10.894 13 11.305 13.328 11.872 13.781C12.551 14.324 13.396 15 14.997 15H16L16.027 14.893L16.34 13.641L18 7L16 6.5V3.001C16.0001 2.76974 15.92 2.54559 15.7734 2.36672C15.6268 2.18786 15.4228 2.06533 15.196 2.02L11 1.181V0H9V1.181L4.804 2.02C4.57722 2.06533 4.37316 2.18786 4.22657 2.36672C4.07998 2.54559 3.99991 2.76974 4 3.001V6.5ZM6 3.819L10 3.019L14 3.819V6L10 5L6 6V3.819Z" fill="currentColor"/></svg>