<svg viewBox="0 0 14 14" fill="none" xmlns="http://www.w3.org/2000/svg"><g clip-path="url(#clip0)"><path d="M13.213 5.90208L13.2349 5.90686H3.86673L6.81174 2.95537C6.95595 2.81127 7.03506 2.61607 7.03506 2.41119C7.03506 2.20631 6.95595 2.01247 6.81174 1.86804L6.3535 1.40956C6.2094 1.26547 6.01739 1.18579 5.81262 1.18579C5.60774 1.18579 5.41561 1.2649 5.27151 1.40899L0.223206 6.45685C0.0785396 6.60152 -0.000566056 6.79421 3.04942e-06 6.99921C-0.000566056 7.20534 0.0785396 7.39815 0.223206 7.54259L5.27151 12.5909C5.41561 12.7349 5.60763 12.8141 5.81262 12.8141C6.01739 12.8141 6.2094 12.7348 6.3535 12.5909L6.81174 12.1324C6.95595 11.9886 7.03506 11.7964 7.03506 11.5915C7.03506 11.3868 6.95595 11.2048 6.81174 11.0608L3.8335 8.0928H13.2235C13.6455 8.0928 14 7.72914 14 7.30743V6.659C14 6.23729 13.635 5.90208 13.213 5.90208Z" fill="#000"/></g><defs><clipPath id="clip0"><rect width="14" height="14" fill="white"/></clipPath></defs></svg>